<?xml version="1.0" encoding="utf-8"?>
<!-- Generator: Adobe Illustrator 19.2.1, SVG Export Plug-In . SVG Version: 6.00 Build 0)  -->
<svg version="1.1" id="Layer_1" xmlns="http://www.w3.org/2000/svg" xmlns:xlink="http://www.w3.org/1999/xlink" x="0px" y="0px"
	 viewBox="0 0 93.9 105.8" style="enable-background:new 0 0 93.9 105.8;" xml:space="preserve">
<style type="text/css">
	.st0{fill:#159FDD;}
</style>
<g>
	<path class="st0" d="M30.6,56.6l6.8,3.4l-5.9,16l10.3,3.8l9.4-25.3L31.9,45c-0.5-0.4-0.8-0.9-0.9-1.5l0,0c0-0.2-0.1-0.4-0.1-0.5
		c0-0.5,0.1-0.9,0.4-1.4l0,0l5-7.9l2.8,12.6l24.4-5.4l-2.4-10.7l-13.7,3l-2.9-12.9c0.1,0,0.1,0,0.2,0c5.3-0.4,9.4-4.8,9.4-10.1
		c0-0.2,0-0.5,0-0.8l-1.5,0.1l1.5-0.1C53.8,4.1,49.4,0,44.1,0c-0.2,0-0.5,0-0.8,0C38,0.4,34,4.9,34,10.1c0,0.2,0,0.5,0,0.8
		c0.1,1.3,0.4,2.5,0.9,3.5l-24.6,5.1L0,40.5l9.9,4.9l8-16.2l9.7-2.1l-5.5,8.7l0,0c-1.4,2.2-2.1,4.7-2.1,7.2c0,1,0.1,2,0.3,2.9l0,0
		c0.2,1,0.5,1.9,0.9,2.8L16.6,68L2.7,90.2l9.3,5.8l14.9-23.7L30.6,56.6z M43.6,3L43.6,3c0.2,0,0.4,0,0.5,0c3.7,0,6.8,2.9,7.1,6.6
		l0,0c0,0.2,0,0.4,0,0.5c0,3.7-2.9,6.8-6.6,7.1l0,0c-0.2,0-0.4,0-0.5,0c-3.7,0-6.8-2.9-7.1-6.6l0,0c0-0.2,0-0.4,0-0.5
		C37,6.4,39.8,3.3,43.6,3z M15.8,26.6L8.5,41.4L4,39.2l8.3-17l21-4.4l-3.6,5.6L15.8,26.6z M24.6,37.3L24.6,37.3l12.1-19.2l5.1,3.2
		l3.4,15.4l13.7-3l1.1,4.9l-18.6,4.1l-3.7-16.8L28.8,40l0,0c-0.6,0.9-0.9,1.9-0.9,3c0,0.4,0,0.8,0.1,1.2c0.3,1.3,1.1,2.5,2.2,3.3
		l0.1,0.1L47.5,56l-7.4,20l-4.7-1.7l5.8-15.7l-13.5-6.7c-2.3-1.5-4-3.8-4.6-6.6l0,0c-0.2-0.8-0.3-1.5-0.3-2.3
		C22.9,41,23.5,39,24.6,37.3z M11.1,91.9l-4.2-2.7l12.6-20.1l4.1-17.1c0.8,0.9,1.7,1.7,2.7,2.3l0.1,0l1.6,0.8l-3.8,15.9L11.1,91.9z"
		/>
	<polygon class="st0" points="28.1,44.2 28.1,44.2 28.1,44.2 	"/>
	<polygon class="st0" points="28.1,44.2 28.1,44.2 28.1,44.2 	"/>
	<polygon class="st0" points="34,10.9 34,10.9 34,10.9 	"/>
	<polygon class="st0" points="44.8,20.2 44.8,20.2 44.8,20.2 	"/>
	<polygon class="st0" points="43.4,0 43.4,0 43.4,0 	"/>
	<path class="st0" d="M70.9,64c-5.2,0-9.5,4.2-9.5,9.5c0,5.2,4.2,9.5,9.5,9.5c5.2,0,9.5-4.2,9.5-9.5C80.3,68.2,76.1,64,70.9,64z
		 M75.4,78.1c-1.2,1.2-2.8,1.9-4.6,1.9c-1.8,0-3.4-0.7-4.6-1.9c-1.2-1.2-1.9-2.8-1.9-4.6c0-1.8,0.7-3.4,1.9-4.6
		c1.2-1.2,2.8-1.9,4.6-1.9c1.8,0,3.4,0.7,4.6,1.9c1.2,1.2,1.9,2.8,1.9,4.6C77.3,75.3,76.6,76.9,75.4,78.1z"/>
	<path class="st0" d="M90.1,67.7c0-0.1-0.1-0.2-0.1-0.4l2.8-2.5l-4.1-7.1L84.8,59c0,0-0.1-0.1-0.1-0.1l1.2-3.8L78.7,51L75.9,54
		c0,0-0.1,0-0.1,0L75,50.1h-8.2L65.9,54c-0.1,0-0.2,0-0.3,0.1L63,51.2l-7.1,4.1l1.1,3.5c-0.1,0.1-0.3,0.2-0.4,0.4l-3.4-1.1l-4.1,7.1
		l2.5,2.3c-0.1,0.3-0.2,0.5-0.2,0.8L48.3,69v8.3l3,0.6c0.1,0.4,0.2,0.7,0.3,1.1l-2.1,1.9l4.1,7.1l2.7-0.9c0.3,0.3,0.6,0.6,1,1
		l-0.8,2.5l7.1,4.1l1.8-2c0.4,0.1,0.9,0.2,1.3,0.3l0.6,2.6h8.3l0.6-2.8c0.4-0.1,0.8-0.2,1.2-0.4l1.9,2.1l7.1-4.1l-1-3
		c0.2-0.2,0.5-0.5,0.7-0.7l2.9,0.9l4.1-7.1l-2.6-2.4c0.1-0.2,0.1-0.4,0.1-0.7l3.3-0.7v-1.2v-7L90.1,67.7z M87.5,84.1L85,83.3
		l-0.6,0.8c-0.5,0.7-1.1,1.3-1.7,1.9l-0.7,0.7l0.8,2.5l-2.9,1.7L78.1,89l-1,0.4c-0.9,0.3-1.8,0.6-2.7,0.8l-0.9,0.2L73,92.7h-3.4
		l-0.5-2.2l-1-0.2c-1-0.2-1.9-0.4-2.8-0.7l-0.9-0.3L62.8,91l-2.9-1.7l0.7-2.1l-0.8-0.6c-0.7-0.6-1.4-1.3-2.1-2l-0.6-0.8l-2.2,0.7
		l-1.7-2.9l1.8-1.6L54.6,79c-0.3-0.8-0.5-1.7-0.7-2.6l-0.2-1l-2.5-0.5v-3.4l2.6-0.6l0.2-1c0.2-0.8,0.4-1.6,0.7-2.3l0.3-1l-2.2-2
		l1.7-2.9l2.9,0.9l0.7-0.7c0.5-0.5,1-1,1.5-1.5l0.8-0.7l-1-3.1l2.9-1.7l2.2,2.5l0.9-0.3c0.6-0.2,1.2-0.4,1.9-0.5l1-0.2l0.7-3.4h3.4
		l0.7,3.4l1,0.2c0.6,0.1,1.2,0.3,1.8,0.5l0.9,0.3l2.4-2.7l2.9,1.7l-1.1,3.3l0.8,0.6c0.5,0.4,0.9,0.8,1.3,1.3l0.7,0.7l3.3-1.1
		l1.7,2.9l-2.5,2.2l0.4,1c0.2,0.6,0.4,1.3,0.6,1.9l0.2,0.9l3.2,0.7v3.4l-3,0.6l-0.2,1c-0.1,0.8-0.3,1.5-0.5,2.2L87,79.2l2.2,2
		L87.5,84.1z"/>
	<path class="st0" d="M45.7,88.9l-2-0.5l1.2-1.9l-0.2-1.9l-3.2-3.2l-1.9-0.2l-1.8,1.1l-0.5-2.2L35.9,79h-4.5l-1.5,1.2l-0.5,2
		l-1.9-1.2l-1.8,0.2l-3.2,3.2l-0.2,1.9l1.1,1.8l-2.2,0.5L20,89.9v4.5l1.2,1.5l2,0.5L22,98.3l0.2,1.9l3.2,3.2l1.8,0.2l1.8-1.1
		l0.5,2.2l1.5,1.2h4.5l1.5-1.2l0.5-2l1.9,1.2l1.9-0.2l3.2-3.2l0.2-1.8l-1.1-1.8l2.2-0.5l1.2-1.5l0-4.5L45.7,88.9z M41.4,99.1
		l-1.5,1.5L37.2,99L35,99.9l-0.7,2.9h-2.1l-0.7-3.1l-2.2-0.9l-2.5,1.6l-1.5-1.5l1.7-2.7l-0.9-2.3L23,93.3v-2.1l3.1-0.7l0.9-2.2
		l-1.6-2.5l1.5-1.5l2.7,1.7l2.2-0.9l0.7-2.9h2.1l0.7,3.1l2.2,0.9l2.5-1.6l1.5,1.5L40,88.6l0.9,2.2l2.9,0.7l0,2.1l-3.1,0.7l-0.9,2.2
		L41.4,99.1z"/>
	<path class="st0" d="M33.4,87.4c-2.8,0-5,2.3-5,5c0,2.8,2.3,5,5,5c2.8,0,5-2.3,5-5C38.4,89.6,36.2,87.4,33.4,87.4z M33.4,94.4
		c-1.1,0-2-0.9-2-2c0-1.1,0.9-2,2-2c1.1,0,2,0.9,2,2C35.4,93.5,34.5,94.4,33.4,94.4z"/>
</g>
</svg>
