<?xml version="1.0" encoding="utf-8"?>
<!-- Generator: Adobe Illustrator 19.2.1, SVG Export Plug-In . SVG Version: 6.00 Build 0)  -->
<svg version="1.1" id="Layer_1" xmlns="http://www.w3.org/2000/svg" xmlns:xlink="http://www.w3.org/1999/xlink" x="0px" y="0px"
	 viewBox="0 0 101.2 100.4" style="enable-background:new 0 0 101.2 100.4;" xml:space="preserve">
<style type="text/css">
	.st0{fill:#159FDD;}
</style>
<g>
	<path class="st0" d="M58.8,69.9c0.7,0,1.4-0.2,2.1-0.4c1-0.4,2-0.9,2.8-1.7c0.4-0.4,0.7-0.8,1-1.4c0.3-0.5,0.4-1.1,0.4-1.8h-1.3
		l1.3,0l0,0h-1.3l1.3,0l0,0V41.8v0c0-1.4-0.5-2.8-1.3-3.9c-0.8-1.1-1.9-2.1-3.3-2.6l0,0l0,0c-3.5-1.1-7.2-1.7-10.8-1.7
		c-3.6,0-7.3,0.6-10.8,1.7l0,0l0,0c-1.4,0.5-2.5,1.4-3.3,2.6c-0.8,1.2-1.3,2.5-1.3,3.9v22.9l0,0l0,0c0,0.9,0.3,1.6,0.7,2.3
		c0.6,1,1.5,1.7,2.5,2.2c1,0.5,2,0.8,3.1,0.8l0-3c-0.3,0-0.7-0.1-1.1-0.2c-0.6-0.2-1.3-0.6-1.7-1c-0.2-0.2-0.4-0.4-0.4-0.6
		c-0.1-0.2-0.1-0.3-0.1-0.4h-0.6l0.6,0l0,0h-0.6l0.6,0l0,0V41.8v0c0-0.7,0.3-1.5,0.8-2.2c0.5-0.7,1.1-1.2,1.7-1.4l0,0
		c3.2-1,6.6-1.5,9.9-1.5c3.3,0,6.7,0.5,9.9,1.5l0,0c0.6,0.2,1.2,0.7,1.7,1.4c0.5,0.7,0.8,1.6,0.8,2.2v22.9h1.5l-1.5,0l0,0
		c0,0.2-0.1,0.4-0.2,0.6c-0.2,0.4-0.8,0.8-1.4,1.1c-0.6,0.3-1.3,0.5-1.7,0.5L58.8,69.9L58.8,69.9z"/>
	<path class="st0" d="M57.1,27.8h-1.5c0,1.6-0.7,3.1-1.7,4.1c-1.1,1.1-2.5,1.7-4.1,1.7c-1.6,0-3.1-0.7-4.2-1.7
		c-1.1-1.1-1.7-2.5-1.7-4.1c0-1.6,0.7-3.1,1.7-4.2c1.1-1.1,2.5-1.7,4.1-1.7c1.6,0,3.1,0.7,4.1,1.7c1.1,1.1,1.7,2.5,1.7,4.2H57.1h1.5
		c0-4.9-4-8.9-8.9-8.9c-4.9,0-8.9,4-8.9,8.9c0,4.9,4,8.9,8.9,8.9c4.9,0,8.9-4,8.9-8.9H57.1z"/>
	<polyline class="st0" points="59,88.5 59,43 56,43 56,88.5 	"/>
	<polyline class="st0" points="40.4,43 40.4,88.5 43.4,88.5 43.4,43 	"/>
	<polyline class="st0" points="48.2,67.3 48.2,89.8 51.2,89.8 51.2,67.3 	"/>
	<path class="st0" d="M94.7,33.2l1.5,0.4L99.4,21l-7.9,3l0.5,1.4l1.3-0.8C84.1,9.2,67.4,0,49.8,0c-6,0-12,1.1-17.9,3.3
		C15.6,9.5,3.8,23.4,0.3,40.4L0,41.9l12.4,2.5l0.3-1.5c2.6-12.8,11.4-23.2,23.6-27.8c4.4-1.7,9-2.5,13.4-2.5
		c12.6,0,24.7,6.4,31.7,17.1l1.3-0.8l-0.5-1.4l-9.8,3.7l10.7,7.3l10.1,6.8l3-11.8L94.7,33.2l-1.5-0.4l-1.9,7.7l-6.6-4.4l-5.9-4
		l6.2-2.4l-1-1.6C76.4,16.6,63.4,9.7,49.8,9.7c-4.8,0-9.7,0.9-14.5,2.7c-13.1,5-22.7,16.2-25.5,30l1.5,0.3l0.3-1.5l-9.5-1.9
		l-0.3,1.5L3.2,41C6.5,25,17.6,12,32.9,6.1C38.5,4,44.2,3,49.8,3C66.3,3,82,11.7,90.7,26.2l0.6,1.1l3.7-1.4l-1.8,7L94.7,33.2z"/>
	<path class="st0" d="M6.5,67.2l-1.5-0.4L1.9,79.4l7.9-3L9.3,75L8,75.7c9.2,15.5,25.9,24.7,43.5,24.7l0,0c6,0,12-1.1,17.9-3.3l0,0
		c16.2-6.2,28-20.1,31.5-37.1l0.3-1.5l-12.4-2.5l-0.3,1.5c-2.6,12.8-11.4,23.2-23.6,27.8c-4.4,1.7-9,2.5-13.4,2.5
		c-12.6,0-24.7-6.4-31.7-17.1l-1.3,0.8l0.5,1.4l9.8-3.7l-10.7-7.2l0,0L8,55l-3,11.8L6.5,67.2L8,67.6l1.9-7.7l6.6,4.4l0,0l5.9,4
		l-6.2,2.4l1,1.6c7.6,11.6,20.6,18.4,34.2,18.4c4.8,0,9.7-0.9,14.5-2.7c13.1-5,22.7-16.2,25.5-30L90,57.7l-0.3,1.5l9.5,1.9l0.3-1.5
		L98,59.4c-3.3,16-14.4,29.1-29.7,34.9l0,0c-5.6,2.1-11.3,3.1-16.9,3.1c-16.5,0-32.3-8.7-40.9-23.2l-0.6-1.1l-3.7,1.4l1.8-7
		L6.5,67.2z"/>
</g>
</svg>
