<?xml version="1.0" encoding="utf-8"?>
<!-- Generator: Adobe Illustrator 19.2.1, SVG Export Plug-In . SVG Version: 6.00 Build 0)  -->
<svg version="1.1" id="Layer_1" xmlns="http://www.w3.org/2000/svg" xmlns:xlink="http://www.w3.org/1999/xlink" x="0px" y="0px"
	 viewBox="0 0 108.3 108.5" style="enable-background:new 0 0 108.3 108.5;" xml:space="preserve">
<style type="text/css">
	.st0{fill:#159FDD;}
</style>
<g>
	<path class="st0" d="M99.9,91.6l-2.1,2.1l4.6,4.6H56.7V69.5l7.7-7.9L77.6,71l8.5-3.1l7-16.5l7.1,0.6l6-12.7l-2.7-1.3l-5.1,10.8
		l-7.2-0.7l-7.3,17.3l-5.8,2.1L64,57.6l-7.3,7.5V43.9l5.2,7.9l1.2,0.7h20l1.5-1.5v-7.8l-1.5-1.5h-15l-9.3-14L57.6,27h-3.9
		c2.2-2,3.6-4.9,3.6-8.1c0-6.1-4.9-11-11-11c-6.1,0-11,4.9-11,11c0,3.2,1.4,6.1,3.6,8.1h-5.6l-1.2,0.6L20.1,44.3L20,45.9l8.7,15.2
		l2,0.6l5.4-3.1v18.2l-0.1,0l-3.5,5.3l-5.4-4.5l-8.2,11l2.4,1.8l6.3-8.4l5.6,4.6l2.8-4.4v16.2H9.8V5.6l5,5l2.1-2.1L8.4,0L0,8.4
		l2.1,2.1v0l4.6-4.6v95.5h96l-5,5l2.1,2.1l8.4-8.4L99.9,91.6z M38.4,18.9c0-2.2,0.9-4.2,2.3-5.7c1.5-1.4,3.4-2.3,5.7-2.3
		c2.2,0,4.2,0.9,5.7,2.3c1.4,1.5,2.3,3.4,2.3,5.7c0,2.2-0.9,4.2-2.3,5.7c-1.5,1.4-3.4,2.3-5.7,2.3c-2.2,0-4.2-0.9-5.7-2.3
		C39.3,23.1,38.4,21.1,38.4,18.9z M32.4,45.8l3.8-5v11.5L32.4,45.8z M36.4,35.4l-7.1,9.3l-0.1,1.7l5.5,9.5l-4.2,2.4l-7.5-13L34.1,30
		h22.7l9.3,14l1.2,0.7h14.3v4.8H64l-7.5-11.3l-2.7,0.8v59.5h-5.5V62.3h-3v36.1h-6.1V36.3L36.4,35.4z"/>
	<rect x="59.8" y="92.9" class="st0" width="3" height="3.3"/>
	<rect x="67.6" y="92.9" class="st0" width="3" height="3.3"/>
	<rect x="75.4" y="92.9" class="st0" width="3" height="3.3"/>
	<rect x="82.9" y="92.9" class="st0" width="3" height="3.3"/>
	<rect x="90.7" y="92.9" class="st0" width="3" height="3.3"/>
	<rect x="20.8" y="92.9" class="st0" width="3" height="3.3"/>
	<rect x="28.6" y="92.9" class="st0" width="3" height="3.3"/>
	<rect x="13.7" y="86.3" class="st0" width="3.3" height="3"/>
	<rect x="13.7" y="78.5" class="st0" width="3.3" height="3"/>
	<rect x="13.7" y="70.7" class="st0" width="3.3" height="3"/>
	<rect x="13.7" y="62.9" class="st0" width="3.3" height="3"/>
	<rect x="13.7" y="55.1" class="st0" width="3.3" height="3"/>
	<rect x="13.7" y="47.3" class="st0" width="3.3" height="3"/>
	<rect x="13.7" y="39.5" class="st0" width="3.3" height="3"/>
	<rect x="13.7" y="31.7" class="st0" width="3.3" height="3"/>
	<rect x="13.7" y="24.2" class="st0" width="3.3" height="3"/>
	<rect x="13.7" y="16.4" class="st0" width="3.3" height="3"/>
</g>
</svg>
