<?xml version="1.0" encoding="utf-8"?>
<!-- Generator: Adobe Illustrator 19.2.1, SVG Export Plug-In . SVG Version: 6.00 Build 0)  -->
<svg version="1.1" id="Layer_1" xmlns="http://www.w3.org/2000/svg" xmlns:xlink="http://www.w3.org/1999/xlink" x="0px" y="0px"
	 viewBox="0 0 101.6 97.9" style="enable-background:new 0 0 101.6 97.9;" xml:space="preserve">
<style type="text/css">
	.st0{fill:#159FDD;}
</style>
<g>
	<path class="st0" d="M68.6,64c0.5-0.5,0.9-1.1,1.2-1.7c0.3-0.6,0.5-1.4,0.5-2.1h0l0,0v0v0V29.8v0c0-1.7-0.6-3.4-1.6-4.9
		c-1-1.4-2.3-2.7-4-3.2l0,0l0,0c-2.3-0.7-4.6-1.3-6.9-1.6c2.6-2.1,4.2-5.2,4.2-8.8C62,5,57,0,50.8,0c-6.2,0-11.3,5-11.3,11.3
		c0,3.5,1.6,6.7,4.2,8.8c-2.3,0.4-4.6,0.9-6.9,1.6l0,0l0,0c-1.7,0.6-3.1,1.8-4,3.2c-1,1.5-1.6,3.2-1.6,4.9v30.3v0v0
		c0,1,0.3,2,0.9,2.7c0.8,1.2,1.9,2.1,3.1,2.7c1.2,0.6,2.5,1,3.7,1v31h23.8v-31c0.8,0,1.7-0.2,2.5-0.5C66.4,65.7,67.6,64.9,68.6,64z
		 M44.9,17.1c-1.5-1.5-2.4-3.6-2.4-5.8c0-2.3,0.9-4.3,2.4-5.8C46.4,3.9,48.5,3,50.8,3c2.3,0,4.3,0.9,5.8,2.4C58.1,6.9,59,9,59,11.3
		c0,2.3-0.9,4.3-2.4,5.8c-1.3,1.3-3.1,2.2-5.1,2.4c-0.3,0-0.5,0-0.8,0c-0.3,0-0.5,0-0.8,0C48,19.3,46.3,18.4,44.9,17.1z M62.7,63.6
		V31.5h-3v63.1h-7.4V63.7h-3v30.9h-7.4V31.5h-3v32.2c-0.4,0-0.9-0.1-1.5-0.3c-0.9-0.3-1.7-0.9-2.3-1.5c-0.3-0.3-0.5-0.6-0.7-0.9
		c-0.1-0.3-0.2-0.6-0.2-0.8v0V29.8c0-1,0.4-2.2,1.1-3.2c0.7-1,1.6-1.8,2.5-2.1c4-1.3,8.1-1.9,12.3-2c0.3,0,0.5,0,0.8,0
		c0.3,0,0.5,0,0.8,0c4.1,0.1,8.3,0.7,12.3,2c0.9,0.3,1.8,1,2.5,2c0.7,1,1.1,2.2,1.1,3.2v30.3l0,0v0c0,0.3-0.1,0.7-0.4,1.1
		c-0.4,0.6-1.1,1.2-2,1.7C64.2,63.4,63.3,63.6,62.7,63.6z"/>
	<polygon class="st0" points="89.8,62.5 87.7,64.7 95.8,72.8 66.8,72.8 66.8,75.8 95.8,75.8 87.7,83.9 89.8,86 101.6,74.3 	"/>
	<polygon class="st0" points="13.8,76.5 11.7,74.4 0,86.2 11.7,97.9 13.8,95.8 5.7,87.7 34.8,87.7 34.8,84.7 5.7,84.7 	"/>
</g>
</svg>
