<?xml version="1.0" encoding="utf-8"?>
<!-- Generator: Adobe Illustrator 19.2.1, SVG Export Plug-In . SVG Version: 6.00 Build 0)  -->
<svg version="1.1" id="Layer_1" xmlns="http://www.w3.org/2000/svg" xmlns:xlink="http://www.w3.org/1999/xlink" x="0px" y="0px"
	 viewBox="0 0 101.5 99.5" style="enable-background:new 0 0 101.5 99.5;" xml:space="preserve">
<style type="text/css">
	.st0{fill:#159FDD;}
</style>
<path class="st0" d="M78.5,53.5c-6.8,0-12.9,2.9-17.1,7.6L52.5,56v-10C64.4,45.1,73.8,35.1,73.8,23c0-12.7-10.3-23-23-23
	c-12.7,0-23,10.3-23,23c0,12.3,9.6,22.3,21.7,23v10l-9.2,5.3C36,56.5,29.9,53.5,23,53.5c-12.7,0-23,10.3-23,23c0,12.7,10.3,23,23,23
	c12.7,0,23-10.3,23-23c0-4.7-1.4-9.1-3.9-12.8l8.9-5.1l8.5,4.9c-2.5,3.7-4,8.2-4,13c0,12.7,10.3,23,23,23c12.7,0,23-10.3,23-23
	C101.5,63.8,91.2,53.5,78.5,53.5z M36.1,91.6c-1.2,1-2.5,1.9-3.9,2.6v-7.5h-3v8.8c-2,0.6-4,1-6.2,1c-2.4,0-4.8-0.5-6.9-1.3v-8.5h-3
	v7.1c-1.4-0.8-2.7-1.8-3.9-2.9v-5.5c0-0.7,0.3-1.6,0.8-2.3c0.5-0.7,1.2-1.3,1.9-1.5c3.5-1,7.1-1.6,10.7-1.6c3.6,0,7.2,0.5,10.7,1.6
	c0.7,0.2,1.4,0.7,1.9,1.5c0.5,0.7,0.8,1.6,0.8,2.3V91.6z M18.3,75c-1.1-1.1-1.8-2.6-1.8-4.3c0-1.7,0.7-3.2,1.8-4.3
	c1.1-1.1,2.6-1.8,4.3-1.8c1.7,0,3.2,0.7,4.3,1.8c1.1,1.1,1.8,2.6,1.8,4.3c0,1.7-0.7,3.2-1.8,4.3c-1.1,1.1-2.6,1.8-4.3,1.8
	C20.9,76.8,19.4,76.1,18.3,75z M43,76.5c0,4.4-1.5,8.5-3.9,11.8v-3v0c0-1.5-0.5-2.8-1.4-4c-0.8-1.2-2-2.2-3.5-2.6l0,0l0,0
	c-1.8-0.5-3.7-1-5.6-1.2c1.9-1.7,3.1-4.1,3.1-6.8c0-5-4.1-9.1-9.1-9.1c-5,0-9.1,4.1-9.1,9.1c0,2.7,1.2,5.1,3.1,6.8
	c-1.9,0.3-3.7,0.7-5.6,1.2l0,0l0,0c-1.5,0.5-2.6,1.5-3.5,2.6c-0.8,1.2-1.4,2.6-1.4,4l0,0v1.9C4.2,84.2,3,80.5,3,76.5
	C3,71,5.2,66,8.9,62.4c3.6-3.6,8.6-5.9,14.1-5.9c5.5,0,10.5,2.2,14.1,5.9C40.8,66,43,71,43,76.5z M35.4,27.9c-0.8,1.2-1.4,2.6-1.4,4
	v1.9c-2-3.1-3.2-6.8-3.2-10.8c0-5.5,2.2-10.5,5.9-14.1C40.3,5.2,45.3,3,50.8,3C56.4,3,61.4,5.2,65,8.9c3.6,3.6,5.9,8.6,5.9,14.1
	c0,4.4-1.5,8.5-3.9,11.8v-3c0-1.5-0.5-2.8-1.4-4c-0.8-1.2-2-2.2-3.5-2.6l0,0l0,0c-1.8-0.5-3.7-1-5.6-1.2c1.9-1.7,3.1-4.1,3.1-6.8
	c0-5-4.1-9.1-9.1-9.1c-5,0-9.1,4.1-9.1,9.1c0,2.7,1.2,5.1,3.1,6.8c-1.9,0.3-3.7,0.7-5.6,1.2l0,0l0,0C37.4,25.7,36.2,26.7,35.4,27.9z
	 M54.8,21.5c-1.1,1.1-2.6,1.8-4.3,1.8c-1.7,0-3.2-0.7-4.3-1.8c-1.1-1.1-1.8-2.6-1.8-4.3c0-1.7,0.7-3.2,1.8-4.3
	c1.1-1.1,2.6-1.8,4.3-1.8c1.7,0,3.2,0.7,4.3,1.8c1.1,1.1,1.8,2.6,1.8,4.3C56.6,18.9,55.9,20.4,54.8,21.5z M50.8,43
	c-2.4,0-4.8-0.5-6.9-1.3v-8.5h-3v7.1c-1.4-0.8-2.7-1.8-3.9-2.9v-5.5c0-0.7,0.3-1.6,0.8-2.3c0.5-0.7,1.2-1.3,1.9-1.5
	c3.5-1,7.1-1.6,10.7-1.6c3.6,0,7.2,0.5,10.7,1.6c0.7,0.2,1.4,0.7,1.9,1.5c0.5,0.7,0.8,1.6,0.8,2.3v6.2c-1.2,1-2.5,1.9-3.9,2.6v-7.6
	h-3V42C55.1,42.6,53,43,50.8,43z M91.6,91.6c-1.2,1-2.5,1.9-3.9,2.6v-7.5h-3v8.8c-2,0.6-4,1-6.2,1c-2.4,0-4.8-0.5-6.9-1.3v-8.5h-3
	v7.1c-1.4-0.8-2.7-1.8-3.9-2.9v-5.5c0-0.7,0.3-1.6,0.8-2.3c0.5-0.7,1.2-1.3,1.9-1.5c3.5-1,7.1-1.6,10.7-1.6c3.6,0,7.2,0.5,10.7,1.6
	c0.7,0.2,1.4,0.7,1.9,1.5c0.5,0.7,0.8,1.6,0.8,2.3V91.6z M73.8,75c-1.1-1.1-1.8-2.6-1.8-4.3c0-1.7,0.7-3.2,1.8-4.3
	c1.1-1.1,2.6-1.8,4.3-1.8c1.7,0,3.2,0.7,4.3,1.8c1.1,1.1,1.8,2.6,1.8,4.3c0,1.7-0.7,3.2-1.8,4.3c-1.1,1.1-2.6,1.8-4.3,1.8
	C76.4,76.8,74.9,76.1,73.8,75z M94.6,88.3v-3c0-1.5-0.5-2.8-1.4-4c-0.8-1.2-2-2.2-3.5-2.6l0,0l0,0c-1.8-0.5-3.7-1-5.6-1.2
	c1.9-1.7,3.1-4.1,3.1-6.8c0-5-4.1-9.1-9.1-9.1c-5,0-9.1,4.1-9.1,9.1c0,2.7,1.2,5.1,3.1,6.8c-1.9,0.3-3.7,0.7-5.6,1.2l0,0l0,0
	c-1.5,0.5-2.6,1.5-3.5,2.6c-0.8,1.2-1.4,2.6-1.4,4v1.9c-2-3.1-3.2-6.8-3.2-10.8c0-5.5,2.2-10.5,5.9-14.1c3.6-3.6,8.6-5.9,14.1-5.9
	c5.5,0,10.5,2.2,14.1,5.9c3.6,3.6,5.9,8.6,5.9,14.1C98.5,80.9,97,85,94.6,88.3z"/>
</svg>
