<?xml version="1.0" encoding="utf-8"?>
<!-- Generator: Adobe Illustrator 19.2.1, SVG Export Plug-In . SVG Version: 6.00 Build 0)  -->
<svg version="1.1" id="Layer_1" xmlns="http://www.w3.org/2000/svg" xmlns:xlink="http://www.w3.org/1999/xlink" x="0px" y="0px"
	 viewBox="0 0 180 41" style="enable-background:new 0 0 180 41;" xml:space="preserve">
<style type="text/css">
	.st0{clip-path:url(#SVGID_2_);fill:#FFFFFF;}
</style>
<g>
	<defs>
		<rect id="SVGID_1_" y="0" width="180" height="41"/>
	</defs>
	<clipPath id="SVGID_2_">
		<use xlink:href="#SVGID_1_"  style="overflow:visible;"/>
	</clipPath>
	<path class="st0" d="M20.6,0C8.7,0.2,0,8.2,0,20.6c0,12.5,8.6,20,20.6,20.3c6.4,0.2,11.3-1.3,16.2-3.9V17.6H21.6l-0.6,6.7h8.1v8.2
		c-2.3,1-4.9,1.5-8.5,1.4C12.9,33.9,7.9,28.3,8,20.2c0.1-7.5,4.6-12.9,12.1-13.2c4.6-0.2,8.4,1.1,11,3.3l5.1-5.1
		C31.9,1.4,26.6-0.1,20.6,0 M87.4,5.8v25.2c0,6.2,2,9.4,8.8,9.4c1.9,0,3.3-0.2,5.1-0.7l0.5-6c-1.5,0.5-2.8,0.6-3.9,0.6
		c-2.6,0-3.2-1.4-3.2-3.9v-11h6.6l0.5-6.2h-7.1V5.8H87.4z M52.8,12.6c-4.2,0-8.1,1.2-11.9,4.2l4.1,4.2c1.9-1.8,4.5-2.8,7.1-2.8
		c3.6,0,5.6,1.6,5.6,4.5v0.3h-1.2c-6.3,0-16.5,0.7-16.3,9.5c0.1,5.6,4.7,8.1,9.6,8.1c3.3,0,6.4-0.9,8.4-3.3l0.1,2.6h6.4V22.5
		C64.7,16.5,61.1,12.6,52.8,12.6 M119.7,12.6c-3.9,0-6.6,1.8-8,4.1l-0.2-3.4h-6.6v26.6h7.2V25.4c0-3.4,1.6-6.2,5.6-6.2
		c4.1,0,4.4,3.7,4.4,6.7v14.1h7.2V23.2C129.2,17.8,126.9,12.6,119.7,12.6 M146.2,12.6c-7.8,0-13.7,5.6-13.7,14c0,8.4,6,14,14,14
		c4.6,0,8.5-1.5,11.9-5.6l-4.7-3.6c-2.4,2.4-4.1,3.3-7.4,3.2c-3.3-0.1-6.1-2.2-6.6-5.6h19.8V27C159.4,17.8,154.7,12.6,146.2,12.6
		 M69.2,13.3v26.6h7.2V25.9c0-3.1,2-6.4,6.1-6.4h1.9l0.6-6.2h-1.8c-3.1,0-5.6,1-7,3.3L76,13.3H69.2z M162.7,13.3v26.6h7.2V25.9
		c0-3.1,2.1-6.4,6.1-6.4h2.6l0.5-6.2h-2.4c-3.1,0-5.6,1-7,3.3l-0.1-3.3H162.7z M146,18.3c3.5-0.1,6,1.9,6.2,5.3h-12.6
		C140.2,20.6,142.5,18.4,146,18.3 M56.8,28.3h1v1.1c0,6.1-10.3,7.6-10.4,2.6C47.4,28.5,53.3,28.3,56.8,28.3 M176.4,33.3
		c-2,0-3.6,1.5-3.6,3.6c0,2.1,1.7,3.6,3.6,3.6c2,0,3.6-1.5,3.6-3.6C180,34.8,178.3,33.3,176.4,33.3 M176.4,33.9
		c1.6,0,2.9,1.2,2.9,2.9c0,1.7-1.3,3-2.9,3c-1.6,0-2.9-1.3-2.9-3C173.4,35.1,174.7,33.9,176.4,33.9 M175,34.8v4.1h0.6v-1.8h0.7
		l1.1,1.8h0.7l-1.2-1.8c0.6-0.1,1.1-0.4,1.1-1.2c0-0.8-0.5-1.1-1.5-1.1H175z M175.6,35.3h0.9c0.4,0,0.9,0.1,0.9,0.6
		c0,0.6-0.5,0.7-1,0.7h-0.8V35.3z"/>
</g>
</svg>
