<?xml version="1.0" encoding="utf-8"?>
<!-- Generator: Adobe Illustrator 19.2.1, SVG Export Plug-In . SVG Version: 6.00 Build 0)  -->
<svg version="1.1" id="Layer_1" xmlns="http://www.w3.org/2000/svg" xmlns:xlink="http://www.w3.org/1999/xlink" x="0px" y="0px"
	 viewBox="0 0 105.3 97.4" style="enable-background:new 0 0 105.3 97.4;" xml:space="preserve">
<style type="text/css">
	.st0{fill:#159FDD;}
</style>
<g>
	<rect x="30.3" y="37.9" class="st0" width="3" height="5.2"/>
	<rect x="48.5" y="50.1" transform="matrix(0.8663 -0.4996 0.4996 0.8663 -18.9568 32.452)" class="st0" width="5.2" height="3"/>
	<rect x="51.5" y="61.3" class="st0" width="5.2" height="3"/>
	<rect x="49.6" y="71.4" transform="matrix(0.4997 -0.8662 0.8662 0.4997 -38.4877 81.2949)" class="st0" width="3" height="5.2"/>
	<rect x="41.5" y="79.6" transform="matrix(0.866 -0.5 0.5 0.866 -35.319 32.4889)" class="st0" width="3" height="5.2"/>
	<rect x="30.3" y="82.5" class="st0" width="3" height="5.2"/>
	<rect x="18" y="80.6" transform="matrix(0.5005 -0.8658 0.8658 0.5005 -60.8141 58.8868)" class="st0" width="5.2" height="3"/>
	<rect x="9.9" y="72.5" transform="matrix(0.8663 -0.4996 0.4996 0.8663 -35.2889 16.1117)" class="st0" width="5.2" height="3"/>
	<rect x="6.9" y="61.3" class="st0" width="5.2" height="3"/>
	<rect x="10.9" y="49" transform="matrix(0.4996 -0.8663 0.8663 0.4996 -38.4983 36.6212)" class="st0" width="3" height="5.2"/>
	<rect x="19.1" y="40.9" transform="matrix(0.8663 -0.4996 0.4996 0.8663 -18.9524 16.1148)" class="st0" width="3" height="5.2"/>
	<path class="st0" d="M44.8,50.5l-2.2-2L32.4,59.8c-0.2,0-0.4-0.1-0.7-0.1c-0.3,0-0.7,0.1-1,0.2l-9.4-8.4l-2,2.2l9.4,8.4
		c0,0.2-0.1,0.4-0.1,0.7c0,0.8,0.3,1.7,1,2.3c0.6,0.5,1.3,0.8,2,0.8c0.8,0,1.7-0.3,2.3-1l0,0c0.5-0.6,0.8-1.3,0.8-2
		c0-0.3-0.1-0.7-0.2-1L44.8,50.5z M31.8,62.8L31.8,62.8L31.8,62.8l-0.1,0L31.8,62.8L31.8,62.8L31.8,62.8L31.8,62.8L31.8,62.8
		L31.8,62.8L31.8,62.8z"/>
	<path class="st0" d="M104,39.3l1.2-0.9L92.5,20.8l-1.2-0.6h-6.2c2.4-2.1,4-5.2,4-8.7C89,5.2,83.9,0,77.5,0C71.1,0,66,5.2,66,11.5
		c0,3.5,1.5,6.6,4,8.7h-4.3l-1.2,0.7l-9.9,14.8h-6.3c-0.1-0.1-0.2-0.2-0.3-0.3C43.2,32.6,37.7,31,31.8,31C14.2,31,0,45.2,0,62.8
		c0,17.6,14.2,31.8,31.8,31.8c17.6,0,31.8-14.2,31.8-31.8v0c0-5.8-1.6-11.2-4.3-15.9h0.4l1.2-0.7l5.7-8.5v58.2l1.5,1.5h18.6l1.5-1.5
		V53.4l5.8,3.3l2-0.6l9.2-16.1L104,39.3z M69,11.5c0-2.4,1-4.5,2.5-6C73,4,75.1,3,77.5,3c2.4,0,4.5,1,6,2.5c1.5,1.5,2.5,3.7,2.5,6
		c0,2.4-1,4.5-2.5,6c-1.5,1.5-3.7,2.5-6,2.5c-2.4,0-4.5-1-6-2.5C69.9,16,69,13.9,69,11.5z M60.6,62.8c0,8-3.2,15.1-8.4,20.4
		c-5.2,5.2-12.4,8.4-20.4,8.4c-8,0-15.1-3.2-20.4-8.4C6.2,77.9,3,70.8,3,62.8c0-8,3.2-15.1,8.4-20.4c5.2-5.2,12.4-8.4,20.4-8.4
		c3.4,0,6.7,0.6,9.7,1.7h-2.8l-1.5,1.5v8.2l1.5,1.5h17.2C58.8,51.5,60.6,56.9,60.6,62.8z M94.2,53.3l-4.5-2.6l5.8-10.1l-0.1-1.7
		l-7.5-9.9L85.2,30v64.5h-6.6v-37h-3v37h-5.9l0-61.7l-2.7-0.8l-8,12h-2.1c-0.2,0-0.4,0-0.6,0H40.1v-5.2h15.2l1.2-0.7l9.9-14.8h24
		l11.7,16.2L94.2,53.3z M88.2,47.2V34.4l4.2,5.5L88.2,47.2z"/>
</g>
</svg>
